<svg width="158" height="35" viewBox="0 0 158 35" fill="none" xmlns="http://www.w3.org/2000/svg">
<path d="M100.191 0.25H123.194C125.628 0.25 127.596 2.12685 127.596 4.38956V25.6103C127.596 27.8732 125.628 29.75 123.194 29.75H100.191C97.7562 29.75 95.7885 27.8732 95.7885 25.6103V4.38956C95.7885 2.12685 97.7562 0.25 100.191 0.25Z" fill="#E21F36" stroke="white" stroke-width="0.5"/>
<path fill-rule="evenodd" clip-rule="evenodd" d="M103.944 5.07514C105.548 5.07514 106.856 6.28986 106.856 7.77947C106.856 9.26907 105.548 10.4838 103.944 10.4838C102.34 10.4838 101.031 9.26907 101.031 7.77947C101.031 6.28986 102.34 5.07514 103.944 5.07514ZM119.536 5H106.609C107.434 5.68302 107.955 6.67643 107.955 7.77932C107.955 8.81617 107.494 9.75616 106.754 10.4326C106.029 11.0946 105.037 11.5041 103.944 11.5041C102.742 11.5041 101.662 11.0092 100.925 10.228C100.924 10.262 100.923 10.2961 100.923 10.3304V22.6545C100.923 24.1485 102.27 25.3707 103.917 25.3707C105.564 25.3707 106.911 24.1485 106.911 22.6545V10.4326H111.032V22.6546C111.032 24.1487 112.383 25.3709 114.033 25.3709C115.684 25.3709 117.035 24.1487 117.035 22.6546V10.4326H119.536C121.145 10.4326 122.462 9.21022 122.462 7.71621C122.462 6.22235 121.145 5 119.536 5Z" fill="white"/>
<path d="M8.44619 27.28C7.16619 27.28 5.95286 27.1733 4.80619 26.96C3.67286 26.7333 2.79952 26.48 2.18619 26.2V22.24H6.58619C6.58619 22.6533 6.67953 22.9533 6.86619 23.14C7.05286 23.3267 7.39286 23.42 7.88619 23.42C8.29952 23.42 8.59286 23.36 8.76619 23.24C8.95286 23.1067 9.04619 22.9133 9.04619 22.66C9.04619 22.4467 8.95952 22.2667 8.78619 22.12C8.61286 21.96 8.31286 21.8 7.88619 21.64L6.16619 21.04C4.68619 20.48 3.61952 19.82 2.96619 19.06C2.32619 18.3 2.00619 17.2733 2.00619 15.98C2.00619 14.4067 2.51952 13.2133 3.54619 12.4C4.58619 11.5733 6.31286 11.16 8.72619 11.16C9.88619 11.16 10.9729 11.28 11.9862 11.52C13.0129 11.7467 13.8395 12.0533 14.4662 12.44V16.02H10.4662C10.4662 15.3533 10.0529 15.02 9.22619 15.02C8.82619 15.02 8.53952 15.0733 8.36619 15.18C8.20619 15.2733 8.12619 15.4467 8.12619 15.7C8.12619 15.9267 8.21952 16.1067 8.40619 16.24C8.60619 16.3733 8.92619 16.5133 9.36619 16.66L11.1062 17.26C12.5195 17.74 13.5462 18.3667 14.1862 19.14C14.8395 19.9 15.1662 20.9 15.1662 22.14C15.1662 23.8333 14.5929 25.1133 13.4462 25.98C12.3129 26.8467 10.6462 27.28 8.44619 27.28ZM37.7828 14.72H36.7828V23.72H37.7828V27H30.2228V23.72H31.1828V16.72L27.7828 27H24.8228L21.3228 16.82V23.72H22.2828V27H15.7228V23.72H16.7228V14.72H15.7228V11.44H24.8828L26.9628 17.68L28.9628 11.44H37.7828V14.72ZM53.2543 23.72H54.0543V27H46.2143V23.72H47.4143L47.0943 22.12H44.3743L44.0543 23.72H45.2543V27H38.4143V23.72H39.2143L42.5943 11.44H49.8743L53.2543 23.72ZM44.8143 20H46.6543L45.8343 16.02H45.6343L44.8143 20ZM54.6876 23.72H55.6876V14.72H54.6876V11.44H63.8676C65.5876 11.44 66.9009 11.7933 67.8076 12.5C68.7143 13.2067 69.1676 14.3533 69.1676 15.94C69.1676 16.8333 68.9876 17.6067 68.6276 18.26C68.2676 18.9133 67.7543 19.3667 67.0876 19.62L67.1076 19.82C68.3876 20.02 69.0276 20.8067 69.0276 22.18V23.72H69.9676V27H63.6276V22.3C63.6276 21.78 63.5476 21.3867 63.3876 21.12C63.2409 20.8533 63.0009 20.6733 62.6676 20.58C62.3476 20.4867 61.8876 20.44 61.2876 20.44V23.72H62.6076V27H54.6876V23.72ZM62.3676 18C62.7543 18 63.0409 17.9 63.2276 17.7C63.4276 17.4867 63.5276 17.16 63.5276 16.72V16C63.5276 15.56 63.4276 15.24 63.2276 15.04C63.0409 14.8267 62.7543 14.72 62.3676 14.72H61.2876V18H62.3676ZM84.881 16.28H81.441V14.72H80.161V23.72H81.561V27H73.161V23.72H74.561V14.72H73.281V16.28H69.841V11.44H84.881V16.28Z" fill="white"/>
<path d="M4.80619 26.96L4.70812 27.4503L4.71474 27.4516L4.80619 26.96ZM2.18619 26.2H1.68619V26.5214L1.97855 26.6548L2.18619 26.2ZM2.18619 22.24V21.74H1.68619V22.24H2.18619ZM6.58619 22.24H7.08619V21.74H6.58619V22.24ZM6.86619 23.14L6.51264 23.4936L6.51264 23.4936L6.86619 23.14ZM8.76619 23.24L9.05083 23.6511L9.05681 23.6469L8.76619 23.24ZM8.78619 22.12L8.44705 22.4874L8.45498 22.4947L8.46322 22.5017L8.78619 22.12ZM7.88619 21.64L8.0618 21.1717L8.05088 21.1679L7.88619 21.64ZM6.16619 21.04L5.98919 21.5078L6.00151 21.5121L6.16619 21.04ZM2.96619 19.06L2.58372 19.3821L2.58703 19.3859L2.96619 19.06ZM3.54619 12.4L3.85667 12.7919L3.85731 12.7914L3.54619 12.4ZM11.9862 11.52L11.8709 12.0066L11.8784 12.0082L11.9862 11.52ZM14.4662 12.44H14.9662V12.161L14.7287 12.0145L14.4662 12.44ZM14.4662 16.02V16.52H14.9662V16.02H14.4662ZM10.4662 16.02H9.96619V16.52H10.4662V16.02ZM8.36619 15.18L8.6182 15.612L8.62824 15.6058L8.36619 15.18ZM8.40619 16.24L8.11557 16.6469L8.12213 16.6516L8.12884 16.656L8.40619 16.24ZM9.36619 16.66L9.5292 16.1873L9.52431 16.1857L9.36619 16.66ZM11.1062 17.26L10.9432 17.7327L10.9454 17.7334L11.1062 17.26ZM14.1862 19.14L13.8009 19.4588L13.807 19.4659L14.1862 19.14ZM13.4462 25.98L13.1447 25.5811L13.1425 25.5828L13.4462 25.98ZM8.44619 26.78C7.19394 26.78 6.0114 26.6756 4.89765 26.4684L4.71474 27.4516C5.89432 27.671 7.13845 27.78 8.44619 27.78V26.78ZM4.90425 26.4697C3.78598 26.2461 2.95596 26.0018 2.39384 25.7452L1.97855 26.6548C2.64309 26.9582 3.55974 27.2206 4.70813 27.4503L4.90425 26.4697ZM2.68619 26.2V22.24H1.68619V26.2H2.68619ZM2.18619 22.74H6.58619V21.74H2.18619V22.74ZM6.08619 22.24C6.08619 22.7131 6.1909 23.1718 6.51264 23.4936L7.21975 22.7864C7.16815 22.7349 7.08619 22.5936 7.08619 22.24H6.08619ZM6.51264 23.4936C6.847 23.8279 7.36361 23.92 7.88619 23.92V22.92C7.42211 22.92 7.25871 22.8254 7.21975 22.7864L6.51264 23.4936ZM7.88619 23.92C8.3194 23.92 8.74531 23.8626 9.0508 23.6511L8.48159 22.8289C8.44041 22.8574 8.27965 22.92 7.88619 22.92V23.92ZM9.05681 23.6469C9.39005 23.4088 9.54619 23.0552 9.54619 22.66H8.54619C8.54619 22.7715 8.51566 22.8045 8.47557 22.8331L9.05681 23.6469ZM9.54619 22.66C9.54619 22.2891 9.38654 21.973 9.10916 21.7383L8.46322 22.5017C8.53251 22.5603 8.54619 22.6042 8.54619 22.66H9.54619ZM9.12533 21.7526C8.87842 21.5247 8.50318 21.3374 8.06175 21.1718L7.71063 22.1082C8.12254 22.2626 8.34729 22.3953 8.44705 22.4874L9.12533 21.7526ZM8.05088 21.1679L6.33088 20.5679L6.00151 21.5121L7.72151 22.1121L8.05088 21.1679ZM6.34314 20.5724C4.90046 20.0265 3.92145 19.4042 3.34535 18.7341L2.58703 19.3859C3.3176 20.2358 4.47192 20.9335 5.98925 21.5076L6.34314 20.5724ZM3.34865 18.7379C2.80497 18.0923 2.50619 17.1916 2.50619 15.98H1.50619C1.50619 17.3551 1.84741 18.5077 2.58374 19.3821L3.34865 18.7379ZM2.50619 15.98C2.50619 14.5252 2.97418 13.491 3.85667 12.7919L3.23571 12.0081C2.06487 12.9356 1.50619 14.2881 1.50619 15.98H2.50619ZM3.85731 12.7914C4.76126 12.0729 6.34449 11.66 8.72619 11.66V10.66C6.28122 10.66 4.41113 11.0738 3.23507 12.0086L3.85731 12.7914ZM8.72619 11.66C9.85173 11.66 10.8994 11.7764 11.871 12.0065L12.1014 11.0335C11.0463 10.7836 9.92066 10.66 8.72619 10.66V11.66ZM11.8784 12.0082C12.8718 12.2276 13.6403 12.5179 14.2036 12.8655L14.7287 12.0145C14.0387 11.5887 13.154 11.2658 12.094 11.0318L11.8784 12.0082ZM13.9662 12.44V16.02H14.9662V12.44H13.9662ZM14.4662 15.52H10.4662V16.52H14.4662V15.52ZM10.9662 16.02C10.9662 15.5777 10.8238 15.1661 10.4701 14.8808C10.1369 14.6121 9.69365 14.52 9.22619 14.52V15.52C9.5854 15.52 9.76214 15.5946 9.84232 15.6592C9.90193 15.7073 9.96619 15.7956 9.96619 16.02H10.9662ZM9.22619 14.52C8.80756 14.52 8.40163 14.5711 8.10414 14.7542L8.62824 15.6058C8.67742 15.5756 8.84482 15.52 9.22619 15.52V14.52ZM8.11426 14.7481C7.74622 14.9628 7.62619 15.3424 7.62619 15.7H8.62619C8.62619 15.6231 8.63869 15.5927 8.64017 15.5895C8.6405 15.5888 8.63849 15.5932 8.63284 15.5995C8.62709 15.6059 8.62136 15.61 8.61813 15.6119L8.11426 14.7481ZM7.62619 15.7C7.62619 16.0904 7.79939 16.421 8.11557 16.6469L8.69681 15.8331C8.63966 15.7923 8.62619 15.7629 8.62619 15.7H7.62619ZM8.12884 16.656C8.38581 16.8273 8.7573 16.9841 9.20808 17.1343L9.52431 16.1857C9.09508 16.0426 8.82657 15.9193 8.68354 15.824L8.12884 16.656ZM9.2032 17.1327L10.9432 17.7327L11.2692 16.7873L9.52919 16.1873L9.2032 17.1327ZM10.9454 17.7334C12.3109 18.1972 13.2421 18.7835 13.801 19.4588L14.5714 18.8212C13.8503 17.9499 12.7281 17.2828 11.267 16.7866L10.9454 17.7334ZM13.807 19.4659C14.3652 20.1152 14.6662 20.9902 14.6662 22.14H15.6662C15.6662 20.8098 15.3139 19.6848 14.5654 18.8141L13.807 19.4659ZM14.6662 22.14C14.6662 23.7081 14.1432 24.8265 13.1447 25.5811L13.7477 26.3789C15.0425 25.4002 15.6662 23.9585 15.6662 22.14H14.6662ZM13.1425 25.5828C12.1323 26.3553 10.5925 26.78 8.44619 26.78V27.78C10.6999 27.78 12.4934 27.338 13.7499 26.3772L13.1425 25.5828ZM37.7828 14.72V15.22H38.2828V14.72H37.7828ZM36.7828 14.72V14.22H36.2828V14.72H36.7828ZM36.7828 23.72H36.2828V24.22H36.7828V23.72ZM37.7828 23.72H38.2828V23.22H37.7828V23.72ZM37.7828 27V27.5H38.2828V27H37.7828ZM30.2228 27H29.7228V27.5H30.2228V27ZM30.2228 23.72V23.22H29.7228V23.72H30.2228ZM31.1828 23.72V24.22H31.6828V23.72H31.1828ZM31.1828 16.72H31.6828L30.708 16.563L31.1828 16.72ZM27.7828 27V27.5H28.144L28.2575 27.157L27.7828 27ZM24.8228 27L24.3499 27.1626L24.4659 27.5H24.8228V27ZM21.3228 16.82L21.7956 16.6574L20.8228 16.82H21.3228ZM21.3228 23.72H20.8228V24.22H21.3228V23.72ZM22.2828 23.72H22.7828V23.22H22.2828V23.72ZM22.2828 27V27.5H22.7828V27H22.2828ZM15.7228 27H15.2228V27.5H15.7228V27ZM15.7228 23.72V23.22H15.2228V23.72H15.7228ZM16.7228 23.72V24.22H17.2228V23.72H16.7228ZM16.7228 14.72H17.2228V14.22H16.7228V14.72ZM15.7228 14.72H15.2228V15.22H15.7228V14.72ZM15.7228 11.44V10.94H15.2228V11.44H15.7228ZM24.8828 11.44L25.3571 11.2819L25.2431 10.94H24.8828V11.44ZM26.9628 17.68L26.4884 17.8381L26.9721 19.2891L27.4389 17.8326L26.9628 17.68ZM28.9628 11.44V10.94H28.598L28.4866 11.2874L28.9628 11.44ZM37.7828 11.44H38.2828V10.94H37.7828V11.44ZM37.7828 14.22H36.7828V15.22H37.7828V14.22ZM36.2828 14.72V23.72H37.2828V14.72H36.2828ZM36.7828 24.22H37.7828V23.22H36.7828V24.22ZM37.2828 23.72V27H38.2828V23.72H37.2828ZM37.7828 26.5H30.2228V27.5H37.7828V26.5ZM30.7228 27V23.72H29.7228V27H30.7228ZM30.2228 24.22H31.1828V23.22H30.2228V24.22ZM31.6828 23.72V16.72H30.6828V23.72H31.6828ZM30.708 16.563L27.308 26.843L28.2575 27.157L31.6575 16.877L30.708 16.563ZM27.7828 26.5H24.8228V27.5H27.7828V26.5ZM25.2956 26.8374L21.7956 16.6574L20.8499 16.9826L24.3499 27.1626L25.2956 26.8374ZM20.8228 16.82V23.72H21.8228V16.82H20.8228ZM21.3228 24.22H22.2828V23.22H21.3228V24.22ZM21.7828 23.72V27H22.7828V23.72H21.7828ZM22.2828 26.5H15.7228V27.5H22.2828V26.5ZM16.2228 27V23.72H15.2228V27H16.2228ZM15.7228 24.22H16.7228V23.22H15.7228V24.22ZM17.2228 23.72V14.72H16.2228V23.72H17.2228ZM16.7228 14.22H15.7228V15.22H16.7228V14.22ZM16.2228 14.72V11.44H15.2228V14.72H16.2228ZM15.7228 11.94H24.8828V10.94H15.7228V11.94ZM24.4084 11.5981L26.4884 17.8381L27.4371 17.5219L25.3571 11.2819L24.4084 11.5981ZM27.4389 17.8326L29.4389 11.5926L28.4866 11.2874L26.4866 17.5274L27.4389 17.8326ZM28.9628 11.94H37.7828V10.94H28.9628V11.94ZM37.2828 11.44V14.72H38.2828V11.44H37.2828ZM53.2543 23.72L52.7722 23.8527L52.8733 24.22H53.2543V23.72ZM54.0543 23.72H54.5543V23.22H54.0543V23.72ZM54.0543 27V27.5H54.5543V27H54.0543ZM46.2143 27H45.7143V27.5H46.2143V27ZM46.2143 23.72V23.22H45.7143V23.72H46.2143ZM47.4143 23.72V24.22H48.0242L47.9046 23.6219L47.4143 23.72ZM47.0943 22.12L47.5846 22.0219L47.5042 21.62H47.0943V22.12ZM44.3743 22.12V21.62H43.9644L43.884 22.0219L44.3743 22.12ZM44.0543 23.72L43.564 23.6219L43.4444 24.22H44.0543V23.72ZM45.2543 23.72H45.7543V23.22H45.2543V23.72ZM45.2543 27V27.5H45.7543V27H45.2543ZM38.4143 27H37.9143V27.5H38.4143V27ZM38.4143 23.72V23.22H37.9143V23.72H38.4143ZM39.2143 23.72V24.22H39.5953L39.6964 23.8527L39.2143 23.72ZM42.5943 11.44V10.94H42.2133L42.1122 11.3073L42.5943 11.44ZM49.8743 11.44L50.3564 11.3073L50.2553 10.94H49.8743V11.44ZM44.8143 20L44.3246 19.8991L44.2008 20.5H44.8143V20ZM46.6543 20V20.5H47.2678L47.144 19.8991L46.6543 20ZM45.8343 16.02L46.324 15.9191L46.2418 15.52H45.8343V16.02ZM45.6343 16.02V15.52H45.2268L45.1446 15.9191L45.6343 16.02ZM53.2543 24.22H54.0543V23.22H53.2543V24.22ZM53.5543 23.72V27H54.5543V23.72H53.5543ZM54.0543 26.5H46.2143V27.5H54.0543V26.5ZM46.7143 27V23.72H45.7143V27H46.7143ZM46.2143 24.22H47.4143V23.22H46.2143V24.22ZM47.9046 23.6219L47.5846 22.0219L46.604 22.2181L46.924 23.8181L47.9046 23.6219ZM47.0943 21.62H44.3743V22.62H47.0943V21.62ZM43.884 22.0219L43.564 23.6219L44.5446 23.8181L44.8646 22.2181L43.884 22.0219ZM44.0543 24.22H45.2543V23.22H44.0543V24.22ZM44.7543 23.72V27H45.7543V23.72H44.7543ZM45.2543 26.5H38.4143V27.5H45.2543V26.5ZM38.9143 27V23.72H37.9143V27H38.9143ZM38.4143 24.22H39.2143V23.22H38.4143V24.22ZM39.6964 23.8527L43.0764 11.5727L42.1122 11.3073L38.7322 23.5873L39.6964 23.8527ZM42.5943 11.94H49.8743V10.94H42.5943V11.94ZM49.3922 11.5727L52.7722 23.8527L53.7364 23.5873L50.3564 11.3073L49.3922 11.5727ZM44.8143 20.5H46.6543V19.5H44.8143V20.5ZM47.144 19.8991L46.324 15.9191L45.3446 16.1209L46.1646 20.1009L47.144 19.8991ZM45.8343 15.52H45.6343V16.52H45.8343V15.52ZM45.1446 15.9191L44.3246 19.8991L45.304 20.1009L46.124 16.1209L45.1446 15.9191ZM54.6876 23.72V23.22H54.1876V23.72H54.6876ZM55.6876 23.72V24.22H56.1876V23.72H55.6876ZM55.6876 14.72H56.1876V14.22H55.6876V14.72ZM54.6876 14.72H54.1876V15.22H54.6876V14.72ZM54.6876 11.44V10.94H54.1876V11.44H54.6876ZM67.8076 12.5L67.5002 12.8944L67.5002 12.8944L67.8076 12.5ZM68.6276 18.26L68.1897 18.0187L68.1897 18.0187L68.6276 18.26ZM67.0876 19.62L66.91 19.1526L66.552 19.2887L66.5901 19.6698L67.0876 19.62ZM67.1076 19.82L66.6101 19.8698L66.6485 20.2543L67.0304 20.314L67.1076 19.82ZM69.0276 23.72H68.5276V24.22H69.0276V23.72ZM69.9676 23.72H70.4676V23.22H69.9676V23.72ZM69.9676 27V27.5H70.4676V27H69.9676ZM63.6276 27H63.1276V27.5H63.6276V27ZM63.3876 21.12L62.9495 21.361L62.954 21.3692L62.9589 21.3772L63.3876 21.12ZM62.6676 20.58L62.5276 21.06L62.5328 21.0615L62.6676 20.58ZM61.2876 20.44V19.94H60.7876V20.44H61.2876ZM61.2876 23.72H60.7876V24.22H61.2876V23.72ZM62.6076 23.72H63.1076V23.22H62.6076V23.72ZM62.6076 27V27.5H63.1076V27H62.6076ZM54.6876 27H54.1876V27.5H54.6876V27ZM63.2276 17.7L62.8628 17.358L62.8621 17.3588L63.2276 17.7ZM63.2276 15.04L62.8513 15.3693L62.8623 15.3818L62.874 15.3936L63.2276 15.04ZM61.2876 14.72V14.22H60.7876V14.72H61.2876ZM61.2876 18H60.7876V18.5H61.2876V18ZM54.6876 24.22H55.6876V23.22H54.6876V24.22ZM56.1876 23.72V14.72H55.1876V23.72H56.1876ZM55.6876 14.22H54.6876V15.22H55.6876V14.22ZM55.1876 14.72V11.44H54.1876V14.72H55.1876ZM54.6876 11.94H63.8676V10.94H54.6876V11.94ZM63.8676 11.94C65.5291 11.94 66.7155 12.2828 67.5002 12.8944L68.115 12.1056C67.0863 11.3039 65.6461 10.94 63.8676 10.94V11.94ZM67.5002 12.8944C68.2434 13.4736 68.6676 14.4451 68.6676 15.94H69.6676C69.6676 14.2615 69.1851 12.9397 68.115 12.1056L67.5002 12.8944ZM68.6676 15.94C68.6676 16.7656 68.5016 17.4526 68.1897 18.0187L69.0655 18.5013C69.4736 17.7607 69.6676 16.9011 69.6676 15.94H68.6676ZM68.1897 18.0187C67.884 18.5734 67.4604 18.9434 66.91 19.1526L67.2652 20.0874C68.0481 19.7899 68.6512 19.2533 69.0655 18.5013L68.1897 18.0187ZM66.5901 19.6698L66.6101 19.8698L67.6051 19.7702L67.5851 19.5702L66.5901 19.6698ZM67.0304 20.314C67.5833 20.4004 67.9375 20.6023 68.1597 20.8755C68.3852 21.1526 68.5276 21.5677 68.5276 22.18H69.5276C69.5276 21.419 69.35 20.7541 68.9355 20.2445C68.5177 19.731 67.9119 19.4396 67.1848 19.326L67.0304 20.314ZM68.5276 22.18V23.72H69.5276V22.18H68.5276ZM69.0276 24.22H69.9676V23.22H69.0276V24.22ZM69.4676 23.72V27H70.4676V23.72H69.4676ZM69.9676 26.5H63.6276V27.5H69.9676V26.5ZM64.1276 27V22.3H63.1276V27H64.1276ZM64.1276 22.3C64.1276 21.7435 64.0446 21.2432 63.8163 20.8628L62.9589 21.3772C63.0506 21.5302 63.1276 21.8165 63.1276 22.3H64.1276ZM63.8257 20.879C63.6052 20.4782 63.2457 20.2226 62.8024 20.0985L62.5328 21.0615C62.7562 21.124 62.8766 21.2285 62.9495 21.361L63.8257 20.879ZM62.8076 20.1C62.4195 19.9868 61.9036 19.94 61.2876 19.94V20.94C61.8716 20.94 62.2757 20.9865 62.5276 21.06L62.8076 20.1ZM60.7876 20.44V23.72H61.7876V20.44H60.7876ZM61.2876 24.22H62.6076V23.22H61.2876V24.22ZM62.1076 23.72V27H63.1076V23.72H62.1076ZM62.6076 26.5H54.6876V27.5H62.6076V26.5ZM55.1876 27V23.72H54.1876V27H55.1876ZM62.3676 18.5C62.8343 18.5 63.2782 18.3785 63.5931 18.0412L62.8621 17.3588C62.8036 17.4215 62.6742 17.5 62.3676 17.5V18.5ZM63.5924 18.042C63.9143 17.6986 64.0276 17.2244 64.0276 16.72H63.0276C63.0276 17.0956 62.9409 17.2747 62.8628 17.358L63.5924 18.042ZM64.0276 16.72V16H63.0276V16.72H64.0276ZM64.0276 16C64.0276 15.4991 63.9157 15.021 63.5812 14.6864L62.874 15.3936C62.9395 15.459 63.0276 15.6209 63.0276 16H64.0276ZM63.6039 14.7107C63.2913 14.3535 62.8435 14.22 62.3676 14.22V15.22C62.665 15.22 62.7906 15.2999 62.8513 15.3693L63.6039 14.7107ZM62.3676 14.22H61.2876V15.22H62.3676V14.22ZM60.7876 14.72V18H61.7876V14.72H60.7876ZM61.2876 18.5H62.3676V17.5H61.2876V18.5ZM84.881 16.28V16.78H85.381V16.28H84.881ZM81.441 16.28H80.941V16.78H81.441V16.28ZM81.441 14.72H81.941V14.22H81.441V14.72ZM80.161 14.72V14.22H79.661V14.72H80.161ZM80.161 23.72H79.661V24.22H80.161V23.72ZM81.561 23.72H82.061V23.22H81.561V23.72ZM81.561 27V27.5H82.061V27H81.561ZM73.161 27H72.661V27.5H73.161V27ZM73.161 23.72V23.22H72.661V23.72H73.161ZM74.561 23.72V24.22H75.061V23.72H74.561ZM74.561 14.72H75.061V14.22H74.561V14.72ZM73.281 14.72V14.22H72.781V14.72H73.281ZM73.281 16.28V16.78H73.781V16.28H73.281ZM69.841 16.28H69.341V16.78H69.841V16.28ZM69.841 11.44V10.94H69.341V11.44H69.841ZM84.881 11.44H85.381V10.94H84.881V11.44ZM84.881 15.78H81.441V16.78H84.881V15.78ZM81.941 16.28V14.72H80.941V16.28H81.941ZM81.441 14.22H80.161V15.22H81.441V14.22ZM79.661 14.72V23.72H80.661V14.72H79.661ZM80.161 24.22H81.561V23.22H80.161V24.22ZM81.061 23.72V27H82.061V23.72H81.061ZM81.561 26.5H73.161V27.5H81.561V26.5ZM73.661 27V23.72H72.661V27H73.661ZM73.161 24.22H74.561V23.22H73.161V24.22ZM75.061 23.72V14.72H74.061V23.72H75.061ZM74.561 14.22H73.281V15.22H74.561V14.22ZM72.781 14.72V16.28H73.781V14.72H72.781ZM73.281 15.78H69.841V16.78H73.281V15.78ZM70.341 16.28V11.44H69.341V16.28H70.341ZM69.841 11.94H84.881V10.94H69.841V11.94ZM84.381 11.44V16.28H85.381V11.44H84.381Z" fill="black"/>
<path d="M138.494 28.28C136.587 28.28 135.1 27.7867 134.034 26.8C132.967 25.8 132.434 24.3467 132.434 22.44C132.434 20.5333 132.967 19.0867 134.034 18.1C135.1 17.1 136.58 16.6 138.474 16.6C139.394 16.6 140.274 16.7267 141.114 16.98C141.954 17.2333 142.607 17.52 143.074 17.84V21.8H139.634V21.44C139.634 21 139.54 20.68 139.354 20.48C139.167 20.2667 138.874 20.16 138.474 20.16C137.7 20.16 137.314 20.5867 137.314 21.44V23.16C137.314 24.2 137.907 24.72 139.094 24.72C140.2 24.72 141.487 24.6 142.954 24.36V27.5C142.5 27.7 141.86 27.88 141.034 28.04C140.22 28.2 139.374 28.28 138.494 28.28ZM149.704 28.28C147.811 28.28 146.331 27.7867 145.264 26.8C144.198 25.8 143.664 24.3467 143.664 22.44C143.664 20.5333 144.198 19.0867 145.264 18.1C146.331 17.1 147.811 16.6 149.704 16.6C151.624 16.6 153.111 17.1067 154.164 18.12C155.218 19.12 155.744 20.56 155.744 22.44C155.744 24.3467 155.211 25.8 154.144 26.8C153.078 27.7867 151.598 28.28 149.704 28.28ZM149.704 24.72C150.091 24.72 150.378 24.62 150.564 24.42C150.764 24.2067 150.864 23.88 150.864 23.44V21.44C150.864 21 150.764 20.68 150.564 20.48C150.378 20.2667 150.091 20.16 149.704 20.16C149.318 20.16 149.024 20.2667 148.824 20.48C148.638 20.68 148.544 21 148.544 21.44V23.44C148.544 23.88 148.638 24.2067 148.824 24.42C149.024 24.62 149.318 24.72 149.704 24.72Z" fill="white"/>
<path d="M134.034 26.8L133.692 27.1648L133.694 27.167L134.034 26.8ZM134.034 18.1L134.373 18.4671L134.376 18.4648L134.034 18.1ZM141.114 16.98L140.969 17.4587L140.969 17.4587L141.114 16.98ZM143.074 17.84H143.574V17.5766L143.357 17.4276L143.074 17.84ZM143.074 21.8V22.3H143.574V21.8H143.074ZM139.634 21.8H139.134V22.3H139.634V21.8ZM139.354 20.48L138.978 20.8093L138.983 20.8153L138.988 20.8212L139.354 20.48ZM142.954 24.36H143.454V23.7715L142.873 23.8666L142.954 24.36ZM142.954 27.5L143.156 27.9575L143.454 27.8259V27.5H142.954ZM141.034 28.04L140.939 27.5491L140.937 27.5494L141.034 28.04ZM138.494 27.78C136.673 27.78 135.322 27.3102 134.373 26.433L133.694 27.167C134.879 28.2631 136.502 28.78 138.494 28.78V27.78ZM134.376 26.4352C133.438 25.5562 132.934 24.2527 132.934 22.44H131.934C131.934 24.4407 132.496 26.0438 133.692 27.1648L134.376 26.4352ZM132.934 22.44C132.934 20.6269 133.438 19.3319 134.373 18.467L133.694 17.7329C132.496 18.8414 131.934 20.4397 131.934 22.44H132.934ZM134.376 18.4648C135.325 17.5749 136.669 17.1 138.474 17.1V16.1C136.492 16.1 134.876 16.6251 133.692 17.7352L134.376 18.4648ZM138.474 17.1C139.347 17.1 140.178 17.2202 140.969 17.4587L141.258 16.5013C140.369 16.2332 139.44 16.1 138.474 16.1V17.1ZM140.969 17.4587C141.784 17.7044 142.383 17.9729 142.791 18.2524L143.357 17.4276C142.831 17.0671 142.123 16.7623 141.258 16.5013L140.969 17.4587ZM142.574 17.84V21.8H143.574V17.84H142.574ZM143.074 21.3H139.634V22.3H143.074V21.3ZM140.134 21.8V21.44H139.134V21.8H140.134ZM140.134 21.44C140.134 20.9466 140.032 20.4738 139.719 20.1388L138.988 20.8212C139.049 20.8862 139.134 21.0534 139.134 21.44H140.134ZM139.73 20.1507C139.414 19.79 138.957 19.66 138.474 19.66V20.66C138.791 20.66 138.92 20.7433 138.978 20.8093L139.73 20.1507ZM138.474 19.66C137.997 19.66 137.551 19.7939 137.233 20.1442C136.924 20.4853 136.814 20.9478 136.814 21.44H137.814C137.814 21.0789 137.897 20.9014 137.974 20.8158C138.043 20.7394 138.178 20.66 138.474 20.66V19.66ZM136.814 21.44V23.16H137.814V21.44H136.814ZM136.814 23.16C136.814 23.7755 136.992 24.3232 137.429 24.706C137.853 25.0778 138.438 25.22 139.094 25.22V24.22C138.563 24.22 138.257 24.1022 138.088 23.954C137.932 23.8168 137.814 23.5845 137.814 23.16H136.814ZM139.094 25.22C140.235 25.22 141.55 25.0964 143.035 24.8534L142.873 23.8666C141.425 24.1036 140.166 24.22 139.094 24.22V25.22ZM142.454 24.36V27.5H143.454V24.36H142.454ZM142.752 27.0425C142.348 27.2206 141.75 27.392 140.939 27.5491L141.129 28.5309C141.971 28.368 142.652 28.1794 143.156 27.9575L142.752 27.0425ZM140.937 27.5494C140.158 27.7028 139.343 27.78 138.494 27.78V28.78C139.404 28.78 140.283 28.6972 141.13 28.5306L140.937 27.5494ZM145.264 26.8L144.922 27.1648L144.925 27.167L145.264 26.8ZM145.264 18.1L145.604 18.4671L145.606 18.4648L145.264 18.1ZM154.164 18.12L153.818 18.4803L153.82 18.4826L154.164 18.12ZM154.144 26.8L154.484 27.1671L154.486 27.1648L154.144 26.8ZM150.564 24.42L150.2 24.078L150.199 24.0788L150.564 24.42ZM150.564 20.48L150.188 20.8093L150.199 20.8218L150.211 20.8336L150.564 20.48ZM148.824 20.48L148.46 20.138L148.459 20.1388L148.824 20.48ZM148.824 24.42L148.448 24.7493L148.459 24.7618L148.471 24.7736L148.824 24.42ZM149.704 27.78C147.898 27.78 146.553 27.3108 145.604 26.433L144.925 27.167C146.109 28.2626 147.724 28.78 149.704 28.78V27.78ZM145.606 26.4352C144.669 25.5562 144.164 24.2527 144.164 22.44H143.164C143.164 24.4407 143.727 26.0438 144.922 27.1648L145.606 26.4352ZM144.164 22.44C144.164 20.6269 144.669 19.3319 145.604 18.467L144.925 17.7329C143.726 18.8414 143.164 20.4397 143.164 22.44H144.164ZM145.606 18.4648C146.555 17.5749 147.899 17.1 149.704 17.1V16.1C147.723 16.1 146.106 16.6251 144.922 17.7352L145.606 18.4648ZM149.704 17.1C151.537 17.1 152.884 17.5819 153.818 18.4803L154.511 17.7597C153.338 16.6314 151.712 16.1 149.704 16.1V17.1ZM153.82 18.4826C154.747 19.3625 155.244 20.6546 155.244 22.44H156.244C156.244 20.4654 155.688 18.8775 154.509 17.7574L153.82 18.4826ZM155.244 22.44C155.244 24.2527 154.74 25.5562 153.802 26.4352L154.486 27.1648C155.682 26.0438 156.244 24.4407 156.244 22.44H155.244ZM153.805 26.433C152.856 27.3108 151.511 27.78 149.704 27.78V28.78C151.684 28.78 153.299 28.2626 154.484 27.167L153.805 26.433ZM149.704 25.22C150.171 25.22 150.615 25.0985 150.93 24.7612L150.199 24.0788C150.14 24.1415 150.011 24.22 149.704 24.22V25.22ZM150.929 24.762C151.251 24.4186 151.364 23.9444 151.364 23.44H150.364C150.364 23.8156 150.278 23.9947 150.2 24.078L150.929 24.762ZM151.364 23.44V21.44H150.364V23.44H151.364ZM151.364 21.44C151.364 20.9391 151.252 20.461 150.918 20.1264L150.211 20.8336C150.276 20.899 150.364 21.0609 150.364 21.44H151.364ZM150.941 20.1507C150.628 19.7935 150.18 19.66 149.704 19.66V20.66C150.002 20.66 150.127 20.7399 150.188 20.8093L150.941 20.1507ZM149.704 19.66C149.226 19.66 148.782 19.7943 148.46 20.138L149.189 20.822C149.267 20.7391 149.409 20.66 149.704 20.66V19.66ZM148.459 20.1388C148.146 20.4738 148.044 20.9466 148.044 21.44H149.044C149.044 21.0534 149.129 20.8862 149.19 20.8212L148.459 20.1388ZM148.044 21.44V23.44H149.044V21.44H148.044ZM148.044 23.44C148.044 23.9372 148.148 24.406 148.448 24.7493L149.201 24.0907C149.128 24.0073 149.044 23.8228 149.044 23.44H148.044ZM148.471 24.7736C148.795 25.0975 149.235 25.22 149.704 25.22V24.22C149.4 24.22 149.254 24.1425 149.178 24.0664L148.471 24.7736Z" fill="black"/>
<path d="M78.5755 33.25H156C156.882 33.25 157.611 33.9019 157.732 34.75H80.3077C79.4261 34.75 78.6968 34.0981 78.5755 33.25Z" fill="black" stroke="black" stroke-width="0.5"/>
<path d="M1.03701 5.25H89.2308C90.1124 5.25 90.8418 5.90193 90.9631 6.75H2.76929C1.88767 6.75 1.15832 6.09807 1.03701 5.25Z" fill="black" stroke="black" stroke-width="0.5"/>
</svg>
