<svg width="101" height="101" viewBox="0 0 101 101" fill="none" xmlns="http://www.w3.org/2000/svg">
<path fill-rule="evenodd" clip-rule="evenodd" d="M15.0669 0.333336H86.2665C94.1865 0.333336 100.667 6.91765 100.667 14.9653V85.7017C100.667 93.75 94.1859 100.334 86.2665 100.334H15.0669C7.14686 100.334 0.666687 93.75 0.666687 85.7017V14.9653C0.666687 6.91765 7.14686 0.333336 15.0669 0.333336Z" fill="#E21F36"/>
<path fill-rule="evenodd" clip-rule="evenodd" d="M26.6754 18.9325C31.6402 18.9325 35.6898 22.6924 35.6898 27.303C35.6898 31.9137 31.6407 35.6736 26.6754 35.6736C21.7105 35.6736 17.661 31.9137 17.661 27.303C17.661 22.6924 21.7105 18.9325 26.6754 18.9325ZM74.9385 18.6999H34.9262C37.4793 20.814 39.0917 23.8889 39.0917 27.3026C39.0917 30.5119 37.6662 33.4214 35.3748 35.515C33.1318 37.5642 30.0587 38.8315 26.6759 38.8315C22.9575 38.8315 19.6129 37.2998 17.3337 34.8818C17.3293 34.9872 17.3264 35.0926 17.3264 35.1989V73.3448C17.3264 77.9691 21.4963 81.7521 26.5932 81.7521C31.6901 81.7521 35.86 77.9691 35.86 73.3448V35.515H48.6163V73.3453C48.6163 77.9696 52.7965 81.7526 57.9052 81.7526C63.0148 81.7526 67.195 77.9696 67.195 73.3453V35.515H74.938C79.919 35.515 83.993 31.7316 83.993 27.1073C83.9935 22.4834 79.919 18.6999 74.9385 18.6999Z" fill="white"/>
</svg>
