<svg width="146" height="35" viewBox="0 0 146 35" fill="none" xmlns="http://www.w3.org/2000/svg">
<path d="M92.3201 0.25H113.68C115.914 0.25 117.75 2.10957 117.75 4.38956V25.6103C117.75 27.8904 115.914 29.75 113.68 29.75H92.3201C90.0859 29.75 88.25 27.8904 88.25 25.6103V4.38956C88.25 2.10957 90.0859 0.25 92.3201 0.25Z" fill="#E21F36" stroke="white" stroke-width="0.5"/>
<path fill-rule="evenodd" clip-rule="evenodd" d="M95.8047 5.07514C97.2942 5.07514 98.509 6.28986 98.509 7.77947C98.509 9.26907 97.2943 10.4838 95.8047 10.4838C94.3153 10.4838 93.1004 9.26907 93.1004 7.77947C93.1004 6.28986 94.3153 5.07514 95.8047 5.07514ZM110.284 5H98.2799C99.0459 5.68302 99.5296 6.67643 99.5296 7.77932C99.5296 8.81617 99.1019 9.75616 98.4145 10.4326C97.7416 11.0946 96.8197 11.5041 95.8049 11.5041C94.6893 11.5041 93.686 11.0092 93.0022 10.228C93.0009 10.262 93 10.2961 93 10.3304V22.6545C93 24.1485 94.251 25.3707 95.7801 25.3707C97.3091 25.3707 98.5601 24.1485 98.5601 22.6545V10.4326H102.387V22.6546C102.387 24.1487 103.641 25.3709 105.174 25.3709C106.707 25.3709 107.961 24.1487 107.961 22.6546V10.4326H110.283C111.778 10.4326 113 9.21022 113 7.71621C113 6.22235 111.778 5 110.284 5Z" fill="white"/>
<path d="M7.6 27.28C6.32 27.28 5.10667 27.1733 3.96 26.96C2.82667 26.7333 1.95333 26.48 1.34 26.2V22.24H5.74C5.74 22.6533 5.83333 22.9533 6.02 23.14C6.20667 23.3267 6.54667 23.42 7.04 23.42C7.45333 23.42 7.74667 23.36 7.92 23.24C8.10667 23.1067 8.2 22.9133 8.2 22.66C8.2 22.4467 8.11333 22.2667 7.94 22.12C7.76667 21.96 7.46667 21.8 7.04 21.64L5.32 21.04C3.84 20.48 2.77333 19.82 2.12 19.06C1.48 18.3 1.16 17.2733 1.16 15.98C1.16 14.4067 1.67333 13.2133 2.7 12.4C3.74 11.5733 5.46667 11.16 7.88 11.16C9.04 11.16 10.1267 11.28 11.14 11.52C12.1667 11.7467 12.9933 12.0533 13.62 12.44V16.02H9.62C9.62 15.3533 9.20667 15.02 8.38 15.02C7.98 15.02 7.69333 15.0733 7.52 15.18C7.36 15.2733 7.28 15.4467 7.28 15.7C7.28 15.9267 7.37333 16.1067 7.56 16.24C7.76 16.3733 8.08 16.5133 8.52 16.66L10.26 17.26C11.6733 17.74 12.7 18.3667 13.34 19.14C13.9933 19.9 14.32 20.9 14.32 22.14C14.32 23.8333 13.7467 25.1133 12.6 25.98C11.4667 26.8467 9.8 27.28 7.6 27.28ZM36.9366 14.72H35.9366V23.72H36.9366V27H29.3766V23.72H30.3366V16.72L26.9366 27H23.9766L20.4766 16.82V23.72H21.4366V27H14.8766V23.72H15.8766V14.72H14.8766V11.44H24.0366L26.1166 17.68L28.1166 11.44H36.9366V14.72ZM52.4081 23.72H53.2081V27H45.3681V23.72H46.5681L46.2481 22.12H43.5281L43.2081 23.72H44.4081V27H37.5681V23.72H38.3681L41.7481 11.44H49.0281L52.4081 23.72ZM43.9681 20H45.8081L44.9881 16.02H44.7881L43.9681 20ZM53.8414 23.72H54.8414V14.72H53.8414V11.44H63.0214C64.7414 11.44 66.0547 11.7933 66.9614 12.5C67.8681 13.2067 68.3214 14.3533 68.3214 15.94C68.3214 16.8333 68.1414 17.6067 67.7814 18.26C67.4214 18.9133 66.9081 19.3667 66.2414 19.62L66.2614 19.82C67.5414 20.02 68.1814 20.8067 68.1814 22.18V23.72H69.1214V27H62.7814V22.3C62.7814 21.78 62.7014 21.3867 62.5414 21.12C62.3947 20.8533 62.1547 20.6733 61.8214 20.58C61.5014 20.4867 61.0414 20.44 60.4414 20.44V23.72H61.7614V27H53.8414V23.72ZM61.5214 18C61.9081 18 62.1947 17.9 62.3814 17.7C62.5814 17.4867 62.6814 17.16 62.6814 16.72V16C62.6814 15.56 62.5814 15.24 62.3814 15.04C62.1947 14.8267 61.9081 14.72 61.5214 14.72H60.4414V18H61.5214ZM84.0348 16.28H80.5948V14.72H79.3148V23.72H80.7148V27H72.3148V23.72H73.7148V14.72H72.4348V16.28H68.9948V11.44H84.0348V16.28Z" fill="#E21F36"/>
<path d="M3.96 26.96L3.86193 27.4503L3.86855 27.4516L3.96 26.96ZM1.34 26.2H0.84V26.5214L1.13235 26.6548L1.34 26.2ZM1.34 22.24V21.74H0.84V22.24H1.34ZM5.74 22.24H6.24V21.74H5.74V22.24ZM6.02 23.14L5.66645 23.4936L5.66645 23.4936L6.02 23.14ZM7.92 23.24L8.20464 23.6511L8.21062 23.6469L7.92 23.24ZM7.94 22.12L7.60086 22.4874L7.60879 22.4947L7.61703 22.5017L7.94 22.12ZM7.04 21.64L7.21561 21.1717L7.20469 21.1679L7.04 21.64ZM5.32 21.04L5.14299 21.5078L5.15531 21.5121L5.32 21.04ZM2.12 19.06L1.73752 19.3821L1.74084 19.3859L2.12 19.06ZM2.7 12.4L3.01048 12.7919L3.01112 12.7914L2.7 12.4ZM11.14 11.52L11.0248 12.0066L11.0322 12.0082L11.14 11.52ZM13.62 12.44H14.12V12.161L13.8826 12.0145L13.62 12.44ZM13.62 16.02V16.52H14.12V16.02H13.62ZM9.62 16.02H9.12V16.52H9.62V16.02ZM7.52 15.18L7.772 15.612L7.78205 15.6058L7.52 15.18ZM7.56 16.24L7.26938 16.6469L7.27594 16.6516L7.28265 16.656L7.56 16.24ZM8.52 16.66L8.683 16.1873L8.67811 16.1857L8.52 16.66ZM10.26 17.26L10.097 17.7327L10.0992 17.7334L10.26 17.26ZM13.34 19.14L12.9547 19.4588L12.9608 19.4659L13.34 19.14ZM12.6 25.98L12.2985 25.5811L12.2963 25.5828L12.6 25.98ZM7.6 26.78C6.34774 26.78 5.1652 26.6756 4.05145 26.4684L3.86855 27.4516C5.04813 27.671 6.29226 27.78 7.6 27.78V26.78ZM4.05806 26.4697C2.93979 26.2461 2.10977 26.0018 1.54765 25.7452L1.13235 26.6548C1.7969 26.9582 2.71355 27.2206 3.86194 27.4503L4.05806 26.4697ZM1.84 26.2V22.24H0.84V26.2H1.84ZM1.34 22.74H5.74V21.74H1.34V22.74ZM5.24 22.24C5.24 22.7131 5.34471 23.1718 5.66645 23.4936L6.37355 22.7864C6.32196 22.7349 6.24 22.5936 6.24 22.24H5.24ZM5.66645 23.4936C6.00081 23.8279 6.51742 23.92 7.04 23.92V22.92C6.57592 22.92 6.41252 22.8254 6.37355 22.7864L5.66645 23.4936ZM7.04 23.92C7.47321 23.92 7.89912 23.8626 8.20461 23.6511L7.6354 22.8289C7.59422 22.8574 7.43346 22.92 7.04 22.92V23.92ZM8.21062 23.6469C8.54386 23.4088 8.7 23.0552 8.7 22.66H7.7C7.7 22.7715 7.66947 22.8045 7.62938 22.8331L8.21062 23.6469ZM8.7 22.66C8.7 22.2891 8.54035 21.973 8.26297 21.7383L7.61703 22.5017C7.68632 22.5603 7.7 22.6042 7.7 22.66H8.7ZM8.27914 21.7526C8.03223 21.5247 7.65699 21.3374 7.21556 21.1718L6.86444 22.1082C7.27635 22.2626 7.5011 22.3953 7.60086 22.4874L8.27914 21.7526ZM7.20469 21.1679L5.48469 20.5679L5.15531 21.5121L6.87531 22.1121L7.20469 21.1679ZM5.49695 20.5724C4.05427 20.0265 3.07526 19.4042 2.49916 18.7341L1.74084 19.3859C2.47141 20.2358 3.62573 20.9335 5.14305 21.5076L5.49695 20.5724ZM2.50246 18.7379C1.95878 18.0923 1.66 17.1916 1.66 15.98H0.66C0.66 17.3551 1.00122 18.5077 1.73754 19.3821L2.50246 18.7379ZM1.66 15.98C1.66 14.5252 2.12799 13.491 3.01048 12.7919L2.38952 12.0081C1.21868 12.9356 0.66 14.2881 0.66 15.98H1.66ZM3.01112 12.7914C3.91506 12.0729 5.4983 11.66 7.88 11.66V10.66C5.43503 10.66 3.56494 11.0738 2.38888 12.0086L3.01112 12.7914ZM7.88 11.66C9.00554 11.66 10.0532 11.7764 11.0248 12.0065L11.2552 11.0335C10.2001 10.7836 9.07446 10.66 7.88 10.66V11.66ZM11.0322 12.0082C12.0256 12.2276 12.7941 12.5179 13.3574 12.8655L13.8826 12.0145C13.1925 11.5887 12.3078 11.2658 11.2478 11.0318L11.0322 12.0082ZM13.12 12.44V16.02H14.12V12.44H13.12ZM13.62 15.52H9.62V16.52H13.62V15.52ZM10.12 16.02C10.12 15.5777 9.9776 15.1661 9.62388 14.8808C9.29071 14.6121 8.84746 14.52 8.38 14.52V15.52C8.73921 15.52 8.91595 15.5946 8.99612 15.6592C9.05574 15.7073 9.12 15.7956 9.12 16.02H10.12ZM8.38 14.52C7.96137 14.52 7.55544 14.5711 7.25795 14.7542L7.78205 15.6058C7.83123 15.5756 7.99863 15.52 8.38 15.52V14.52ZM7.26807 14.7481C6.90003 14.9628 6.78 15.3424 6.78 15.7H7.78C7.78 15.6231 7.7925 15.5927 7.79398 15.5895C7.79431 15.5888 7.7923 15.5932 7.78665 15.5995C7.7809 15.6059 7.77517 15.61 7.77193 15.6119L7.26807 14.7481ZM6.78 15.7C6.78 16.0904 6.9532 16.421 7.26938 16.6469L7.85062 15.8331C7.79347 15.7923 7.78 15.7629 7.78 15.7H6.78ZM7.28265 16.656C7.53962 16.8273 7.91111 16.9841 8.36189 17.1343L8.67811 16.1857C8.24889 16.0426 7.98038 15.9193 7.83735 15.824L7.28265 16.656ZM8.35701 17.1327L10.097 17.7327L10.423 16.7873L8.683 16.1873L8.35701 17.1327ZM10.0992 17.7334C11.4647 18.1972 12.3959 18.7835 12.9548 19.4588L13.7252 18.8212C13.0041 17.9499 11.8819 17.2828 10.4208 16.7866L10.0992 17.7334ZM12.9608 19.4659C13.519 20.1152 13.82 20.9902 13.82 22.14H14.82C14.82 20.8098 14.4677 19.6848 13.7192 18.8141L12.9608 19.4659ZM13.82 22.14C13.82 23.7081 13.297 24.8265 12.2985 25.5811L12.9015 26.3789C14.1963 25.4002 14.82 23.9585 14.82 22.14H13.82ZM12.2963 25.5828C11.2861 26.3553 9.74628 26.78 7.6 26.78V27.78C9.85372 27.78 11.6472 27.338 12.9037 26.3772L12.2963 25.5828ZM36.9366 14.72V15.22H37.4366V14.72H36.9366ZM35.9366 14.72V14.22H35.4366V14.72H35.9366ZM35.9366 23.72H35.4366V24.22H35.9366V23.72ZM36.9366 23.72H37.4366V23.22H36.9366V23.72ZM36.9366 27V27.5H37.4366V27H36.9366ZM29.3766 27H28.8766V27.5H29.3766V27ZM29.3766 23.72V23.22H28.8766V23.72H29.3766ZM30.3366 23.72V24.22H30.8366V23.72H30.3366ZM30.3366 16.72H30.8366L29.8619 16.563L30.3366 16.72ZM26.9366 27V27.5H27.2978L27.4113 27.157L26.9366 27ZM23.9766 27L23.5037 27.1626L23.6197 27.5H23.9766V27ZM20.4766 16.82L20.9494 16.6574L19.9766 16.82H20.4766ZM20.4766 23.72H19.9766V24.22H20.4766V23.72ZM21.4366 23.72H21.9366V23.22H21.4366V23.72ZM21.4366 27V27.5H21.9366V27H21.4366ZM14.8766 27H14.3766V27.5H14.8766V27ZM14.8766 23.72V23.22H14.3766V23.72H14.8766ZM15.8766 23.72V24.22H16.3766V23.72H15.8766ZM15.8766 14.72H16.3766V14.22H15.8766V14.72ZM14.8766 14.72H14.3766V15.22H14.8766V14.72ZM14.8766 11.44V10.94H14.3766V11.44H14.8766ZM24.0366 11.44L24.5109 11.2819L24.3969 10.94H24.0366V11.44ZM26.1166 17.68L25.6422 17.8381L26.1259 19.2891L26.5927 17.8326L26.1166 17.68ZM28.1166 11.44V10.94H27.7518L27.6404 11.2874L28.1166 11.44ZM36.9366 11.44H37.4366V10.94H36.9366V11.44ZM36.9366 14.22H35.9366V15.22H36.9366V14.22ZM35.4366 14.72V23.72H36.4366V14.72H35.4366ZM35.9366 24.22H36.9366V23.22H35.9366V24.22ZM36.4366 23.72V27H37.4366V23.72H36.4366ZM36.9366 26.5H29.3766V27.5H36.9366V26.5ZM29.8766 27V23.72H28.8766V27H29.8766ZM29.3766 24.22H30.3366V23.22H29.3766V24.22ZM30.8366 23.72V16.72H29.8366V23.72H30.8366ZM29.8619 16.563L26.4619 26.843L27.4113 27.157L30.8113 16.877L29.8619 16.563ZM26.9366 26.5H23.9766V27.5H26.9366V26.5ZM24.4494 26.8374L20.9494 16.6574L20.0037 16.9826L23.5037 27.1626L24.4494 26.8374ZM19.9766 16.82V23.72H20.9766V16.82H19.9766ZM20.4766 24.22H21.4366V23.22H20.4766V24.22ZM20.9366 23.72V27H21.9366V23.72H20.9366ZM21.4366 26.5H14.8766V27.5H21.4366V26.5ZM15.3766 27V23.72H14.3766V27H15.3766ZM14.8766 24.22H15.8766V23.22H14.8766V24.22ZM16.3766 23.72V14.72H15.3766V23.72H16.3766ZM15.8766 14.22H14.8766V15.22H15.8766V14.22ZM15.3766 14.72V11.44H14.3766V14.72H15.3766ZM14.8766 11.94H24.0366V10.94H14.8766V11.94ZM23.5622 11.5981L25.6422 17.8381L26.5909 17.5219L24.5109 11.2819L23.5622 11.5981ZM26.5927 17.8326L28.5927 11.5926L27.6404 11.2874L25.6404 17.5274L26.5927 17.8326ZM28.1166 11.94H36.9366V10.94H28.1166V11.94ZM36.4366 11.44V14.72H37.4366V11.44H36.4366ZM52.4081 23.72L51.9261 23.8527L52.0272 24.22H52.4081V23.72ZM53.2081 23.72H53.7081V23.22H53.2081V23.72ZM53.2081 27V27.5H53.7081V27H53.2081ZM45.3681 27H44.8681V27.5H45.3681V27ZM45.3681 23.72V23.22H44.8681V23.72H45.3681ZM46.5681 23.72V24.22H47.178L47.0584 23.6219L46.5681 23.72ZM46.2481 22.12L46.7384 22.0219L46.658 21.62H46.2481V22.12ZM43.5281 22.12V21.62H43.1182L43.0378 22.0219L43.5281 22.12ZM43.2081 23.72L42.7178 23.6219L42.5982 24.22H43.2081V23.72ZM44.4081 23.72H44.9081V23.22H44.4081V23.72ZM44.4081 27V27.5H44.9081V27H44.4081ZM37.5681 27H37.0681V27.5H37.5681V27ZM37.5681 23.72V23.22H37.0681V23.72H37.5681ZM38.3681 23.72V24.22H38.7491L38.8502 23.8527L38.3681 23.72ZM41.7481 11.44V10.94H41.3672L41.2661 11.3073L41.7481 11.44ZM49.0281 11.44L49.5102 11.3073L49.4091 10.94H49.0281V11.44ZM43.9681 20L43.4784 19.8991L43.3546 20.5H43.9681V20ZM45.8081 20V20.5H46.4216L46.2978 19.8991L45.8081 20ZM44.9881 16.02L45.4778 15.9191L45.3956 15.52H44.9881V16.02ZM44.7881 16.02V15.52H44.3806L44.2984 15.9191L44.7881 16.02ZM52.4081 24.22H53.2081V23.22H52.4081V24.22ZM52.7081 23.72V27H53.7081V23.72H52.7081ZM53.2081 26.5H45.3681V27.5H53.2081V26.5ZM45.8681 27V23.72H44.8681V27H45.8681ZM45.3681 24.22H46.5681V23.22H45.3681V24.22ZM47.0584 23.6219L46.7384 22.0219L45.7578 22.2181L46.0778 23.8181L47.0584 23.6219ZM46.2481 21.62H43.5281V22.62H46.2481V21.62ZM43.0378 22.0219L42.7178 23.6219L43.6984 23.8181L44.0184 22.2181L43.0378 22.0219ZM43.2081 24.22H44.4081V23.22H43.2081V24.22ZM43.9081 23.72V27H44.9081V23.72H43.9081ZM44.4081 26.5H37.5681V27.5H44.4081V26.5ZM38.0681 27V23.72H37.0681V27H38.0681ZM37.5681 24.22H38.3681V23.22H37.5681V24.22ZM38.8502 23.8527L42.2302 11.5727L41.2661 11.3073L37.8861 23.5873L38.8502 23.8527ZM41.7481 11.94H49.0281V10.94H41.7481V11.94ZM48.5461 11.5727L51.9261 23.8527L52.8902 23.5873L49.5102 11.3073L48.5461 11.5727ZM43.9681 20.5H45.8081V19.5H43.9681V20.5ZM46.2978 19.8991L45.4778 15.9191L44.4984 16.1209L45.3184 20.1009L46.2978 19.8991ZM44.9881 15.52H44.7881V16.52H44.9881V15.52ZM44.2984 15.9191L43.4784 19.8991L44.4578 20.1009L45.2778 16.1209L44.2984 15.9191ZM53.8414 23.72V23.22H53.3414V23.72H53.8414ZM54.8414 23.72V24.22H55.3414V23.72H54.8414ZM54.8414 14.72H55.3414V14.22H54.8414V14.72ZM53.8414 14.72H53.3414V15.22H53.8414V14.72ZM53.8414 11.44V10.94H53.3414V11.44H53.8414ZM66.9614 12.5L66.654 12.8944L66.654 12.8944L66.9614 12.5ZM67.7814 18.26L67.3435 18.0187L67.3435 18.0187L67.7814 18.26ZM66.2414 19.62L66.0638 19.1526L65.7058 19.2887L65.7439 19.6698L66.2414 19.62ZM66.2614 19.82L65.7639 19.8698L65.8023 20.2543L66.1842 20.314L66.2614 19.82ZM68.1814 23.72H67.6814V24.22H68.1814V23.72ZM69.1214 23.72H69.6214V23.22H69.1214V23.72ZM69.1214 27V27.5H69.6214V27H69.1214ZM62.7814 27H62.2814V27.5H62.7814V27ZM62.5414 21.12L62.1033 21.361L62.1078 21.3692L62.1127 21.3772L62.5414 21.12ZM61.8214 20.58L61.6814 21.06L61.6866 21.0615L61.8214 20.58ZM60.4414 20.44V19.94H59.9414V20.44H60.4414ZM60.4414 23.72H59.9414V24.22H60.4414V23.72ZM61.7614 23.72H62.2614V23.22H61.7614V23.72ZM61.7614 27V27.5H62.2614V27H61.7614ZM53.8414 27H53.3414V27.5H53.8414V27ZM62.3814 17.7L62.0166 17.358L62.0159 17.3588L62.3814 17.7ZM62.3814 15.04L62.0051 15.3693L62.0161 15.3818L62.0279 15.3936L62.3814 15.04ZM60.4414 14.72V14.22H59.9414V14.72H60.4414ZM60.4414 18H59.9414V18.5H60.4414V18ZM53.8414 24.22H54.8414V23.22H53.8414V24.22ZM55.3414 23.72V14.72H54.3414V23.72H55.3414ZM54.8414 14.22H53.8414V15.22H54.8414V14.22ZM54.3414 14.72V11.44H53.3414V14.72H54.3414ZM53.8414 11.94H63.0214V10.94H53.8414V11.94ZM63.0214 11.94C64.6829 11.94 65.8693 12.2828 66.654 12.8944L67.2688 12.1056C66.2401 11.3039 64.7999 10.94 63.0214 10.94V11.94ZM66.654 12.8944C67.3972 13.4736 67.8214 14.4451 67.8214 15.94H68.8214C68.8214 14.2615 68.3389 12.9397 67.2688 12.1056L66.654 12.8944ZM67.8214 15.94C67.8214 16.7656 67.6554 17.4526 67.3435 18.0187L68.2193 18.5013C68.6274 17.7607 68.8214 16.9011 68.8214 15.94H67.8214ZM67.3435 18.0187C67.0378 18.5734 66.6142 18.9434 66.0638 19.1526L66.419 20.0874C67.2019 19.7899 67.805 19.2533 68.2193 18.5013L67.3435 18.0187ZM65.7439 19.6698L65.7639 19.8698L66.7589 19.7702L66.7389 19.5702L65.7439 19.6698ZM66.1842 20.314C66.7371 20.4004 67.0913 20.6023 67.3136 20.8755C67.539 21.1526 67.6814 21.5677 67.6814 22.18H68.6814C68.6814 21.419 68.5039 20.7541 68.0893 20.2445C67.6715 19.731 67.0657 19.4396 66.3386 19.326L66.1842 20.314ZM67.6814 22.18V23.72H68.6814V22.18H67.6814ZM68.1814 24.22H69.1214V23.22H68.1814V24.22ZM68.6214 23.72V27H69.6214V23.72H68.6214ZM69.1214 26.5H62.7814V27.5H69.1214V26.5ZM63.2814 27V22.3H62.2814V27H63.2814ZM63.2814 22.3C63.2814 21.7435 63.1984 21.2432 62.9702 20.8628L62.1127 21.3772C62.2044 21.5302 62.2814 21.8165 62.2814 22.3H63.2814ZM62.9795 20.879C62.759 20.4782 62.3995 20.2226 61.9562 20.0985L61.6866 21.0615C61.91 21.124 62.0304 21.2285 62.1033 21.361L62.9795 20.879ZM61.9614 20.1C61.5733 19.9868 61.0574 19.94 60.4414 19.94V20.94C61.0254 20.94 61.4295 20.9865 61.6814 21.06L61.9614 20.1ZM59.9414 20.44V23.72H60.9414V20.44H59.9414ZM60.4414 24.22H61.7614V23.22H60.4414V24.22ZM61.2614 23.72V27H62.2614V23.72H61.2614ZM61.7614 26.5H53.8414V27.5H61.7614V26.5ZM54.3414 27V23.72H53.3414V27H54.3414ZM61.5214 18.5C61.9881 18.5 62.432 18.3785 62.7469 18.0412L62.0159 17.3588C61.9574 17.4215 61.8281 17.5 61.5214 17.5V18.5ZM62.7462 18.042C63.0681 17.6986 63.1814 17.2244 63.1814 16.72H62.1814C62.1814 17.0956 62.0947 17.2747 62.0166 17.358L62.7462 18.042ZM63.1814 16.72V16H62.1814V16.72H63.1814ZM63.1814 16C63.1814 15.4991 63.0695 15.021 62.735 14.6864L62.0279 15.3936C62.0933 15.459 62.1814 15.6209 62.1814 16H63.1814ZM62.7577 14.7107C62.4451 14.3535 61.9973 14.22 61.5214 14.22V15.22C61.8188 15.22 61.9444 15.2999 62.0051 15.3693L62.7577 14.7107ZM61.5214 14.22H60.4414V15.22H61.5214V14.22ZM59.9414 14.72V18H60.9414V14.72H59.9414ZM60.4414 18.5H61.5214V17.5H60.4414V18.5ZM84.0348 16.28V16.78H84.5348V16.28H84.0348ZM80.5948 16.28H80.0948V16.78H80.5948V16.28ZM80.5948 14.72H81.0948V14.22H80.5948V14.72ZM79.3148 14.72V14.22H78.8148V14.72H79.3148ZM79.3148 23.72H78.8148V24.22H79.3148V23.72ZM80.7148 23.72H81.2148V23.22H80.7148V23.72ZM80.7148 27V27.5H81.2148V27H80.7148ZM72.3148 27H71.8148V27.5H72.3148V27ZM72.3148 23.72V23.22H71.8148V23.72H72.3148ZM73.7148 23.72V24.22H74.2148V23.72H73.7148ZM73.7148 14.72H74.2148V14.22H73.7148V14.72ZM72.4348 14.72V14.22H71.9348V14.72H72.4348ZM72.4348 16.28V16.78H72.9348V16.28H72.4348ZM68.9948 16.28H68.4948V16.78H68.9948V16.28ZM68.9948 11.44V10.94H68.4948V11.44H68.9948ZM84.0348 11.44H84.5348V10.94H84.0348V11.44ZM84.0348 15.78H80.5948V16.78H84.0348V15.78ZM81.0948 16.28V14.72H80.0948V16.28H81.0948ZM80.5948 14.22H79.3148V15.22H80.5948V14.22ZM78.8148 14.72V23.72H79.8148V14.72H78.8148ZM79.3148 24.22H80.7148V23.22H79.3148V24.22ZM80.2148 23.72V27H81.2148V23.72H80.2148ZM80.7148 26.5H72.3148V27.5H80.7148V26.5ZM72.8148 27V23.72H71.8148V27H72.8148ZM72.3148 24.22H73.7148V23.22H72.3148V24.22ZM74.2148 23.72V14.72H73.2148V23.72H74.2148ZM73.7148 14.22H72.4348V15.22H73.7148V14.22ZM71.9348 14.72V16.28H72.9348V14.72H71.9348ZM72.4348 15.78H68.9948V16.78H72.4348V15.78ZM69.4948 16.28V11.44H68.4948V16.28H69.4948ZM68.9948 11.94H84.0348V10.94H68.9948V11.94ZM83.5348 11.44V16.28H84.5348V11.44H83.5348Z" fill="white"/>
<path d="M128.34 28.28C126.433 28.28 124.947 27.7867 123.88 26.8C122.813 25.8 122.28 24.3467 122.28 22.44C122.28 20.5333 122.813 19.0867 123.88 18.1C124.947 17.1 126.427 16.6 128.32 16.6C129.24 16.6 130.12 16.7267 130.96 16.98C131.8 17.2333 132.453 17.52 132.92 17.84V21.8H129.48V21.44C129.48 21 129.387 20.68 129.2 20.48C129.013 20.2667 128.72 20.16 128.32 20.16C127.547 20.16 127.16 20.5867 127.16 21.44V23.16C127.16 24.2 127.753 24.72 128.94 24.72C130.047 24.72 131.333 24.6 132.8 24.36V27.5C132.347 27.7 131.707 27.88 130.88 28.04C130.067 28.2 129.22 28.28 128.34 28.28ZM139.55 28.28C137.657 28.28 136.177 27.7867 135.11 26.8C134.044 25.8 133.51 24.3467 133.51 22.44C133.51 20.5333 134.044 19.0867 135.11 18.1C136.177 17.1 137.657 16.6 139.55 16.6C141.47 16.6 142.957 17.1067 144.01 18.12C145.064 19.12 145.59 20.56 145.59 22.44C145.59 24.3467 145.057 25.8 143.99 26.8C142.924 27.7867 141.444 28.28 139.55 28.28ZM139.55 24.72C139.937 24.72 140.224 24.62 140.41 24.42C140.61 24.2067 140.71 23.88 140.71 23.44V21.44C140.71 21 140.61 20.68 140.41 20.48C140.224 20.2667 139.937 20.16 139.55 20.16C139.164 20.16 138.87 20.2667 138.67 20.48C138.484 20.68 138.39 21 138.39 21.44V23.44C138.39 23.88 138.484 24.2067 138.67 24.42C138.87 24.62 139.164 24.72 139.55 24.72Z" fill="#E21F36"/>
<path d="M123.88 26.8L123.538 27.1648L123.54 27.167L123.88 26.8ZM123.88 18.1L124.22 18.4671L124.222 18.4648L123.88 18.1ZM130.96 16.98L130.816 17.4587L130.816 17.4587L130.96 16.98ZM132.92 17.84H133.42V17.5766L133.203 17.4276L132.92 17.84ZM132.92 21.8V22.3H133.42V21.8H132.92ZM129.48 21.8H128.98V22.3H129.48V21.8ZM129.2 20.48L128.824 20.8093L128.829 20.8153L128.834 20.8212L129.2 20.48ZM132.8 24.36H133.3V23.7715L132.719 23.8666L132.8 24.36ZM132.8 27.5L133.002 27.9575L133.3 27.8259V27.5H132.8ZM130.88 28.04L130.785 27.5491L130.783 27.5494L130.88 28.04ZM128.34 27.78C126.519 27.78 125.168 27.3102 124.22 26.433L123.54 27.167C124.725 28.2631 126.348 28.78 128.34 28.78V27.78ZM124.222 26.4352C123.284 25.5562 122.78 24.2527 122.78 22.44H121.78C121.78 24.4407 122.342 26.0438 123.538 27.1648L124.222 26.4352ZM122.78 22.44C122.78 20.6269 123.285 19.3319 124.22 18.467L123.54 17.7329C122.342 18.8414 121.78 20.4397 121.78 22.44H122.78ZM124.222 18.4648C125.171 17.5749 126.515 17.1 128.32 17.1V16.1C126.338 16.1 124.722 16.6251 123.538 17.7352L124.222 18.4648ZM128.32 17.1C129.193 17.1 130.025 17.2202 130.816 17.4587L131.104 16.5013C130.215 16.2332 129.287 16.1 128.32 16.1V17.1ZM130.816 17.4587C131.63 17.7044 132.23 17.9729 132.637 18.2524L133.203 17.4276C132.677 17.0671 131.97 16.7623 131.104 16.5013L130.816 17.4587ZM132.42 17.84V21.8H133.42V17.84H132.42ZM132.92 21.3H129.48V22.3H132.92V21.3ZM129.98 21.8V21.44H128.98V21.8H129.98ZM129.98 21.44C129.98 20.9466 129.878 20.4738 129.566 20.1388L128.834 20.8212C128.895 20.8862 128.98 21.0534 128.98 21.44H129.98ZM129.576 20.1507C129.261 19.79 128.803 19.66 128.32 19.66V20.66C128.637 20.66 128.766 20.7433 128.824 20.8093L129.576 20.1507ZM128.32 19.66C127.843 19.66 127.397 19.7939 127.08 20.1442C126.77 20.4853 126.66 20.9478 126.66 21.44H127.66C127.66 21.0789 127.743 20.9014 127.82 20.8158C127.89 20.7394 128.024 20.66 128.32 20.66V19.66ZM126.66 21.44V23.16H127.66V21.44H126.66ZM126.66 23.16C126.66 23.7755 126.839 24.3232 127.275 24.706C127.7 25.0778 128.285 25.22 128.94 25.22V24.22C128.409 24.22 128.104 24.1022 127.935 23.954C127.778 23.8168 127.66 23.5845 127.66 23.16H126.66ZM128.94 25.22C130.081 25.22 131.396 25.0964 132.881 24.8534L132.719 23.8666C131.271 24.1036 130.012 24.22 128.94 24.22V25.22ZM132.3 24.36V27.5H133.3V24.36H132.3ZM132.598 27.0425C132.195 27.2206 131.597 27.392 130.785 27.5491L130.975 28.5309C131.817 28.368 132.499 28.1794 133.002 27.9575L132.598 27.0425ZM130.783 27.5494C130.004 27.7028 129.19 27.78 128.34 27.78V28.78C129.25 28.78 130.13 28.6972 130.977 28.5306L130.783 27.5494ZM135.11 26.8L134.768 27.1648L134.771 27.167L135.11 26.8ZM135.11 18.1L135.45 18.4671L135.452 18.4648L135.11 18.1ZM144.01 18.12L143.664 18.4803L143.666 18.4826L144.01 18.12ZM143.99 26.8L144.33 27.1671L144.332 27.1648L143.99 26.8ZM140.41 24.42L140.046 24.078L140.045 24.0788L140.41 24.42ZM140.41 20.48L140.034 20.8093L140.045 20.8218L140.057 20.8336L140.41 20.48ZM138.67 20.48L138.306 20.138L138.305 20.1388L138.67 20.48ZM138.67 24.42L138.294 24.7493L138.305 24.7618L138.317 24.7736L138.67 24.42ZM139.55 27.78C137.744 27.78 136.399 27.3108 135.45 26.433L134.771 27.167C135.955 28.2626 137.571 28.78 139.55 28.78V27.78ZM135.452 26.4352C134.515 25.5562 134.01 24.2527 134.01 22.44H133.01C133.01 24.4407 133.573 26.0438 134.768 27.1648L135.452 26.4352ZM134.01 22.44C134.01 20.6269 134.515 19.3319 135.45 18.467L134.771 17.7329C133.573 18.8414 133.01 20.4397 133.01 22.44H134.01ZM135.452 18.4648C136.402 17.5749 137.745 17.1 139.55 17.1V16.1C137.569 16.1 135.953 16.6251 134.768 17.7352L135.452 18.4648ZM139.55 17.1C141.383 17.1 142.73 17.5819 143.664 18.4803L144.357 17.7597C143.184 16.6314 141.558 16.1 139.55 16.1V17.1ZM143.666 18.4826C144.593 19.3625 145.09 20.6546 145.09 22.44H146.09C146.09 20.4654 145.535 18.8775 144.355 17.7574L143.666 18.4826ZM145.09 22.44C145.09 24.2527 144.586 25.5562 143.648 26.4352L144.332 27.1648C145.528 26.0438 146.09 24.4407 146.09 22.44H145.09ZM143.651 26.433C142.702 27.3108 141.357 27.78 139.55 27.78V28.78C141.53 28.78 143.146 28.2626 144.33 27.167L143.651 26.433ZM139.55 25.22C140.017 25.22 140.461 25.0985 140.776 24.7612L140.045 24.0788C139.987 24.1415 139.857 24.22 139.55 24.22V25.22ZM140.775 24.762C141.097 24.4186 141.21 23.9444 141.21 23.44H140.21C140.21 23.8156 140.124 23.9947 140.046 24.078L140.775 24.762ZM141.21 23.44V21.44H140.21V23.44H141.21ZM141.21 21.44C141.21 20.9391 141.099 20.461 140.764 20.1264L140.057 20.8336C140.122 20.899 140.21 21.0609 140.21 21.44H141.21ZM140.787 20.1507C140.474 19.7935 140.026 19.66 139.55 19.66V20.66C139.848 20.66 139.973 20.7399 140.034 20.8093L140.787 20.1507ZM139.55 19.66C139.072 19.66 138.628 19.7943 138.306 20.138L139.035 20.822C139.113 20.7391 139.255 20.66 139.55 20.66V19.66ZM138.305 20.1388C137.992 20.4738 137.89 20.9466 137.89 21.44H138.89C138.89 21.0534 138.975 20.8862 139.036 20.8212L138.305 20.1388ZM137.89 21.44V23.44H138.89V21.44H137.89ZM137.89 23.44C137.89 23.9372 137.994 24.406 138.294 24.7493L139.047 24.0907C138.974 24.0073 138.89 23.8228 138.89 23.44H137.89ZM138.317 24.7736C138.641 25.0975 139.081 25.22 139.55 25.22V24.22C139.247 24.22 139.1 24.1425 139.024 24.0664L138.317 24.7736Z" fill="white"/>
<path d="M72.2677 33.25H144C144.882 33.25 145.611 33.9019 145.732 34.75H74C73.1184 34.75 72.389 34.0981 72.2677 33.25Z" fill="white" stroke="white" stroke-width="0.5"/>
<path d="M0.267722 5.25H82C82.8816 5.25 83.611 5.90193 83.7323 6.75H2C1.11838 6.75 0.38903 6.09807 0.267722 5.25Z" fill="white" stroke="white" stroke-width="0.5"/>
</svg>
